<svg xmlns="http://www.w3.org/2000/svg" width="30.296" height="24.193" viewBox="0 0 30.296 24.193"><defs><style>.a{fill:#2196f3;}.b{fill:#1d1d1d;stroke:#1d1d1d;}</style></defs><g transform="translate(0.5 0.559)"><path class="a" d="M29.183,65.128a.609.609,0,0,0-.133-.664L18.089,53.5a.609.609,0,0,0-.861.861l9.922,9.922H.609a.609.609,0,0,0,0,1.218H27.151L17.23,75.426a.609.609,0,1,0,.846.876l.015-.015L29.052,65.326A.61.61,0,0,0,29.183,65.128Z" transform="translate(0 -53.333)"/><path class="b" d="M299.257,76.487a.609.609,0,0,1-.431-1.04l10.531-10.53-10.531-10.53a.609.609,0,0,1,.861-.861l10.961,10.961a.609.609,0,0,1,0,.861L299.687,76.309A.608.608,0,0,1,299.257,76.487Z" transform="translate(-281.598 -53.354)"/><path class="b" d="M28.621,246.431H.609a.609.609,0,1,1,0-1.218H28.621a.609.609,0,1,1,0,1.218Z" transform="translate(0 -234.259)"/></g></svg>