<svg xmlns="http://www.w3.org/2000/svg" width="12" height="12" viewBox="0 0 12 12"><g transform="translate(-2.621)"><g transform="translate(2.621 0)"><path d="M97.973,350.322a1.32,1.32,0,1,0,1.32,1.32A1.32,1.32,0,0,0,97.973,350.322Zm0,2.053a.733.733,0,1,1,.733-.733A.733.733,0,0,1,97.973,352.375Z" transform="translate(-94.114 -340.962)"/><path d="M296.5,350.322a1.32,1.32,0,1,0,1.32,1.32A1.32,1.32,0,0,0,296.5,350.322Zm0,2.053a.733.733,0,1,1,.733-.733A.733.733,0,0,1,296.5,352.375Z" transform="translate(-287.541 -340.962)"/><path d="M11.943,7.926a.346.346,0,0,0-.223-.113L2.659,7.685l-.251-.779a1.283,1.283,0,0,0-1.2-.878H.278a.283.283,0,0,0,0,.567h.933a.725.725,0,0,1,.668.5l1.768,5.426-.139.326a1.381,1.381,0,0,0,.125,1.232,1.29,1.29,0,0,0,1.044.595h5.415a.283.283,0,0,0,0-.567H4.677a.708.708,0,0,1-.585-.34.791.791,0,0,1-.07-.68l.111-.255,5.86-.623a1.541,1.541,0,0,0,1.322-1.19l.668-2.847A.244.244,0,0,0,11.943,7.926Zm-1.169,2.961a.952.952,0,0,1-.849.751l-5.791.609L2.84,8.252l8.533.127Z" transform="translate(0 -6.028)"/></g></g></svg>